<?xml version="1.0" encoding="UTF-8" standalone="no"?>
<!-- Created with Inkscape (http://www.inkscape.org/) -->

<svg
   width="65.5009mm"
   height="14.056709mm"
   viewBox="0 0 65.5009 14.056709"
   version="1.1"
   id="svg1"
   inkscape:version="1.3.2 (091e20e, 2023-11-25, custom)"
   sodipodi:docname="куб.svg"
   xmlns:inkscape="http://www.inkscape.org/namespaces/inkscape"
   xmlns:sodipodi="http://sodipodi.sourceforge.net/DTD/sodipodi-0.dtd"
   xmlns="http://www.w3.org/2000/svg"
   xmlns:svg="http://www.w3.org/2000/svg">
  <sodipodi:namedview
     id="namedview1"
     pagecolor="#505050"
     bordercolor="#eeeeee"
     borderopacity="1"
     inkscape:showpageshadow="0"
     inkscape:pageopacity="0"
     inkscape:pagecheckerboard="0"
     inkscape:deskcolor="#505050"
     inkscape:document-units="mm"
     inkscape:zoom="2.0347082"
     inkscape:cx="220.17899"
     inkscape:cy="149.16144"
     inkscape:window-width="1297"
     inkscape:window-height="745"
     inkscape:window-x="55"
     inkscape:window-y="-8"
     inkscape:window-maximized="1"
     inkscape:current-layer="layer1" />
  <defs
     id="defs1" />
  <g
     inkscape:label="Слой 1"
     inkscape:groupmode="layer"
     id="layer1"
     transform="translate(-15.358671,-50.636401)">
    <g
       id="g14">
      <rect
         style="opacity:0.94;fill:none;fill-opacity:1;stroke:#d34949;stroke-width:0.97267;stroke-miterlimit:1.2;stroke-dasharray:none;stroke-opacity:1;paint-order:normal"
         id="rect5"
         width="64.528236"
         height="13.084037"
         x="15.845006"
         y="51.122734"
         ry="1.1727649"
         inkscape:export-filename="Godot\gmtk2024\hud\enlarge_border.svg"
         inkscape:export-xdpi="300"
         inkscape:export-ydpi="300" />
      <path
         id="rect7"
         style="fill:#000000;fill-opacity:0.437107;stroke:none;stroke-width:1.1547;stroke-miterlimit:1.2;stroke-dasharray:none;stroke-opacity:1;paint-order:normal"
         d="m 24.316345,53.517172 c -0.648354,0 -1.169954,0.522117 -1.169954,1.170471 v 1.625224 H 21.52065 c -0.648354,0 -1.169954,0.522117 -1.169954,1.170471 v 0.390157 c 0,0.648354 0.5216,1.170471 1.169954,1.170471 h 1.625741 v 1.625224 c 0,0.648354 0.5216,1.170471 1.169954,1.170471 h 0.390157 c 0.648354,0 1.170471,-0.522117 1.170471,-1.170471 v -1.625224 h 1.625224 c 0.648354,0 1.170471,-0.522117 1.170471,-1.170471 v -0.390157 c 0,-0.648354 -0.522117,-1.170471 -1.170471,-1.170471 h -1.625224 v -1.625224 c 0,-0.648354 -0.522117,-1.170471 -1.170471,-1.170471 z" />
    </g>
  </g>
</svg>
