<?xml version="1.0" encoding="UTF-8" standalone="no"?>
<!-- Created with Inkscape (http://www.inkscape.org/) -->

<svg
   width="13.227662mm"
   height="13.456713mm"
   viewBox="0 0 13.227662 13.456713"
   version="1.1"
   id="svg1"
   inkscape:version="1.3.2 (091e20e, 2023-11-25, custom)"
   sodipodi:docname="куб.svg"
   xmlns:inkscape="http://www.inkscape.org/namespaces/inkscape"
   xmlns:sodipodi="http://sodipodi.sourceforge.net/DTD/sodipodi-0.dtd"
   xmlns="http://www.w3.org/2000/svg"
   xmlns:svg="http://www.w3.org/2000/svg">
  <sodipodi:namedview
     id="namedview1"
     pagecolor="#505050"
     bordercolor="#eeeeee"
     borderopacity="1"
     inkscape:showpageshadow="0"
     inkscape:pageopacity="0"
     inkscape:pagecheckerboard="0"
     inkscape:deskcolor="#505050"
     inkscape:document-units="mm"
     inkscape:zoom="1.0173541"
     inkscape:cx="-104.19184"
     inkscape:cy="206.90928"
     inkscape:window-width="1297"
     inkscape:window-height="745"
     inkscape:window-x="55"
     inkscape:window-y="-8"
     inkscape:window-maximized="1"
     inkscape:current-layer="layer1" />
  <defs
     id="defs1" />
  <g
     inkscape:label="Слой 1"
     inkscape:groupmode="layer"
     id="layer1"
     transform="translate(-15.645006,-70.994863)">
    <g
       id="g32">
      <rect
         style="opacity:0.94;fill:#d34949;fill-opacity:1;stroke:#ffffff;stroke-width:0.4;stroke-miterlimit:1.2;stroke-dasharray:none;stroke-opacity:1;paint-order:markers stroke fill"
         id="rect29"
         width="12.827662"
         height="13.056707"
         x="15.845006"
         y="71.19487"
         ry="6.4138312"
         inkscape:export-filename="Godot\gmtk2024\hud\enlarge_ammo.svg"
         inkscape:export-xdpi="300"
         inkscape:export-ydpi="300" />
      <path
         id="path30"
         style="fill:#000000;fill-opacity:0.437107;stroke:none;stroke-width:1.1547;stroke-miterlimit:1.2;stroke-dasharray:none;stroke-opacity:1;paint-order:normal"
         d="m 22.0635,73.561979 c -0.648354,0 -1.169954,0.522117 -1.169954,1.170471 v 1.625224 h -1.625741 c -0.648354,0 -1.169954,0.522117 -1.169954,1.170471 v 0.390157 c 0,0.648354 0.5216,1.170471 1.169954,1.170471 h 1.625741 v 1.625224 c 0,0.648354 0.5216,1.170471 1.169954,1.170471 h 0.390157 c 0.648354,0 1.170471,-0.522117 1.170471,-1.170471 v -1.625224 h 1.625224 c 0.648354,0 1.170471,-0.522117 1.170471,-1.170471 v -0.390157 c 0,-0.648354 -0.522117,-1.170471 -1.170471,-1.170471 H 23.624128 V 74.73245 c 0,-0.648354 -0.522117,-1.170471 -1.170471,-1.170471 z" />
    </g>
  </g>
</svg>
